<svg width="110" height="55" viewBox="0 0 110 55" fill="none" xmlns="http://www.w3.org/2000/svg">
<path fill-rule="evenodd" clip-rule="evenodd" d="M57.786 19.5767C57.786 19.9871 57.6643 20.3884 57.4363 20.7297C57.2082 21.0709 56.8841 21.3369 56.5049 21.494C56.1257 21.6511 55.7084 21.6922 55.3058 21.6121C54.9032 21.532 54.5334 21.3344 54.2432 21.0441C53.953 20.7539 53.7553 20.3841 53.6752 19.9815C53.5951 19.579 53.6362 19.1617 53.7933 18.7825C53.9504 18.4033 54.2164 18.0791 54.5577 17.8511C54.899 17.6231 55.3002 17.5013 55.7107 17.5013C55.9835 17.5005 56.2537 17.5536 56.5059 17.6576C56.758 17.7616 56.9872 17.9144 57.18 18.1073C57.3729 18.3002 57.5258 18.5293 57.6298 18.7815C57.7338 19.0336 57.7869 19.3039 57.786 19.5767ZM49.2243 23.7475V24.2608C48.8327 23.8371 48.3537 23.5033 47.8206 23.2825C47.2874 23.0617 46.7127 22.9592 46.1361 22.9821C45.3098 22.9732 44.4904 23.1318 43.7271 23.4484C42.9639 23.765 42.2727 24.233 41.6954 24.8241C41.118 25.4153 40.6665 26.1173 40.368 26.8878C40.0695 27.6583 39.9303 28.4813 39.9587 29.3071C39.9294 30.1329 40.0678 30.956 40.3655 31.7269C40.6632 32.4977 41.114 33.2002 41.6908 33.7919C42.2675 34.3836 42.9582 34.8523 43.7211 35.1697C44.4841 35.4871 45.3034 35.6466 46.1297 35.6385C46.7097 35.6652 47.2882 35.5613 47.8227 35.3346C48.3572 35.1079 48.834 34.7641 49.2179 34.3286V34.8722C49.2171 34.9308 49.228 34.989 49.25 35.0433C49.272 35.0977 49.3048 35.147 49.3462 35.1885C49.3877 35.2299 49.437 35.2626 49.4914 35.2847C49.5457 35.3067 49.6039 35.3176 49.6625 35.3167H52.2512V23.2818H49.6845C49.5676 23.2851 49.4564 23.3329 49.3737 23.4156C49.291 23.4983 49.2432 23.6095 49.2399 23.7264L49.2243 23.7475ZM49.2243 31.4438C48.928 31.8521 48.5385 32.1839 48.0884 32.4117C47.6382 32.6395 47.1402 32.7568 46.6357 32.7538C44.5915 32.7538 43.0286 31.475 43.0286 29.3071C43.0286 27.1392 44.5915 25.8604 46.6357 25.8604C47.139 25.8642 47.6346 25.9844 48.0837 26.2117C48.5328 26.4389 48.9232 26.7671 49.2243 27.1703V31.4512V31.4438ZM54.1743 23.302H57.2635V35.3103H54.1743V23.2818V23.302ZM99.9774 22.9812C99.4008 22.9583 98.8261 23.0608 98.293 23.2816C97.7598 23.5024 97.2809 23.8361 96.8892 24.2599V17.5206H93.8V35.3085H96.3878C96.5047 35.3053 96.6159 35.2574 96.6985 35.1747C96.7812 35.092 96.8291 34.9808 96.8324 34.8639V34.3203C97.2189 34.7509 97.6952 35.0914 98.2277 35.3177C98.7602 35.544 99.3359 35.6507 99.9142 35.6302C100.74 35.6366 101.558 35.4762 102.32 35.1587C103.082 34.8412 103.772 34.3731 104.349 33.7825C104.926 33.1919 105.378 32.4909 105.677 31.7216C105.976 30.9523 106.117 30.1304 106.092 29.3053C106.118 28.4799 105.978 27.6577 105.679 26.888C105.379 26.1183 104.928 25.4171 104.351 24.8263C103.774 24.2355 103.083 23.7675 102.321 23.4503C101.559 23.133 100.74 22.9732 99.9142 22.9803L99.9774 22.9812ZM99.4558 32.7235C98.9506 32.7306 98.4512 32.6152 98.0003 32.3871C97.5495 32.1589 97.1607 31.8249 96.8672 31.4136V27.1318C97.1784 26.7394 97.5709 26.419 98.0178 26.1929C98.4647 25.9668 98.9553 25.8402 99.4558 25.8219C101.5 25.8219 103.063 27.1007 103.063 29.2686C103.063 31.4365 101.5 32.7153 99.4558 32.7153V32.7235ZM92.2344 28.1897V35.3424H89.1452V28.5472C89.1452 26.5644 88.5273 25.7678 86.7802 25.7678C86.3094 25.7842 85.8471 25.8974 85.4221 26.1004C84.9971 26.3034 84.6184 26.5918 84.3098 26.9476V35.3112H81.2206V23.2818H83.6479C83.7648 23.2851 83.876 23.3329 83.9587 23.4156C84.0414 23.4983 84.0893 23.6095 84.0925 23.7264V24.2398C84.5188 23.8153 85.0276 23.4829 85.5875 23.2629C86.1474 23.043 86.7464 22.9402 87.3476 22.961C88.5692 22.9158 89.7642 23.3251 90.7017 24.1096C91.7888 25.0052 92.2023 26.1538 92.2023 28.1677L92.2344 28.1897ZM73.8093 22.983C73.2327 22.9602 72.658 23.0627 72.1249 23.2834C71.5917 23.5042 71.1128 23.838 70.7211 24.2618V17.5224H67.6319V35.3085H70.2206C70.3375 35.3053 70.4487 35.2574 70.5314 35.1747C70.6141 35.092 70.6619 34.9808 70.6652 34.8639V34.3203C71.0524 34.7517 71.5298 35.0927 72.0635 35.3191C72.5972 35.5454 73.1741 35.6517 73.7534 35.6302C74.579 35.6366 75.3973 35.4762 76.1593 35.1587C76.9214 34.8412 77.6115 34.3731 78.1883 33.7825C78.7651 33.1919 79.2168 32.4909 79.5162 31.7216C79.8156 30.9523 79.9567 30.1304 79.9308 29.3053C79.9628 28.4785 79.826 27.654 79.5288 26.8819C79.2316 26.1098 78.7802 25.4064 78.2021 24.8145C77.6241 24.2226 76.9315 23.7548 76.1666 23.4394C75.4017 23.124 74.5807 22.9678 73.7534 22.9803L73.8093 22.983ZM73.2942 32.7235C72.7889 32.7306 72.2895 32.6152 71.8387 32.3871C71.3878 32.1589 70.999 31.8249 70.7055 31.4136V27.1318C71.0167 26.7394 71.4093 26.419 71.8562 26.1929C72.3031 25.9668 72.7937 25.8402 73.2942 25.8219C75.3383 25.8219 76.9013 27.1007 76.9013 29.2686C76.9013 31.4365 75.3383 32.7153 73.2942 32.7153V32.7235ZM64.9708 22.9793C65.4455 22.9643 65.9198 23.0183 66.3788 23.1398V25.9814C66.3788 25.9814 63.8122 25.1353 62.2282 26.9384V35.3397H59.139V23.2818H61.7277C61.8446 23.2851 61.9558 23.3329 62.0385 23.4156C62.1211 23.4983 62.169 23.6095 62.1723 23.7264V24.2398C62.9047 23.4788 63.8972 23.0221 64.9516 22.961L64.9708 22.9793ZM33.1258 34.2222L32.6437 33.0737L31.9085 31.442L31.8773 31.4108C29.6433 26.5424 27.2911 21.7291 24.8227 16.9752L24.7237 16.7918L23.9628 15.261C23.6482 14.6342 23.2628 14.0456 22.8143 13.5065C22.3262 12.8914 21.7041 12.3959 20.9954 12.0577C20.2867 11.7194 19.5102 11.5475 18.725 11.5549C17.9451 11.5575 17.1752 11.7302 16.469 12.0609C15.7627 12.3916 15.1371 12.8725 14.6358 13.4698C14.198 14.0168 13.8134 14.6043 13.4872 15.2243L12.6228 16.9165C10.1523 21.7107 7.76718 26.5598 5.56259 31.3522L5.53143 31.4136C5.34809 31.9388 5.08684 32.4769 4.82743 33.0507C4.6667 33.4009 4.50598 33.7838 4.34526 34.1993C3.93774 35.2996 3.80617 36.4831 3.96209 37.646C4.13398 38.8139 4.60714 39.9168 5.33495 40.8462C6.06277 41.7756 7.02014 42.4993 8.11276 42.9462C8.93203 43.2906 9.81274 43.4649 10.7014 43.4586C10.9783 43.4539 11.2547 43.4334 11.5292 43.3972C12.6561 43.2535 13.7423 42.8837 14.7228 42.31C16.2122 41.4218 17.5489 40.2998 18.6819 38.9871C19.822 40.2926 21.1576 41.4135 22.641 42.31C23.6215 42.8838 24.7078 43.2536 25.8347 43.3972C26.1092 43.4334 26.3856 43.4539 26.6624 43.4586C27.5514 43.4679 28.4327 43.2934 29.2511 42.9462C30.3437 42.4993 31.3011 41.7756 32.0289 40.8462C32.7567 39.9168 33.2299 38.8139 33.4018 37.646C33.637 36.5033 33.5361 35.317 33.1112 34.2305L33.1258 34.2222ZM18.7268 35.8842C17.0035 33.7098 15.8852 31.6712 15.502 29.9414C15.3455 29.3049 15.3119 28.6444 15.403 27.9953C15.4662 27.5146 15.6418 27.0555 15.9154 26.6552C16.2355 26.2111 16.6583 25.8511 17.1477 25.6059C17.6371 25.3607 18.1786 25.2376 18.7259 25.2472C19.2745 25.2261 19.8195 25.3435 20.3107 25.5886C20.8019 25.8337 21.2235 26.1986 21.5364 26.6497C21.8101 27.05 21.9856 27.5091 22.0488 27.9898C22.1404 28.6389 22.1068 29.2995 21.9498 29.9359C21.5667 31.6281 20.4493 33.642 18.725 35.8787L18.7268 35.8842ZM31.4703 37.3848C31.3502 38.2024 31.0186 38.9745 30.5082 39.6246C29.9979 40.2746 29.3266 40.7801 28.5608 41.0908C27.7971 41.4139 26.9631 41.5351 26.139 41.4428C25.2816 41.3368 24.4553 41.055 23.7117 40.6151C22.3411 39.7876 21.1126 38.7448 20.0734 37.5268C22.1799 34.9382 23.4587 32.5768 23.9399 30.4667C24.1477 29.5764 24.202 28.6572 24.1003 27.7488C23.9817 26.9676 23.686 26.2238 23.2359 25.5744C22.7298 24.8521 22.0538 24.2653 21.2675 23.8656C20.4812 23.466 19.6087 23.2658 18.7268 23.2828C17.8495 23.2715 16.9823 23.4717 16.1986 23.8663C15.4149 24.2608 14.7377 24.8382 14.2242 25.5497C13.7741 26.1991 13.4784 26.9428 13.3598 27.724C13.2247 28.6313 13.2794 29.5568 13.5202 30.4419C14.0023 32.5484 15.3113 34.9446 17.3867 37.5332C16.3548 38.7585 15.1251 39.8024 13.7484 40.6215C13.0049 41.0709 12.1762 41.3612 11.3147 41.474C10.4915 41.5654 9.65849 41.4553 8.88734 41.1532C8.12157 40.8424 7.45027 40.3369 6.93994 39.6869C6.42961 39.0368 6.09796 38.2647 5.97784 37.4471C5.87687 36.6122 5.97648 35.7653 6.26843 34.9767C6.36743 34.6558 6.52143 34.3588 6.68093 33.9573C6.90368 33.444 7.16309 32.9013 7.41609 32.3577L7.44726 32.2963C9.65276 27.5297 12.0123 22.6851 14.4781 17.9533L14.5698 17.7241L15.3361 16.2538C15.5848 15.7469 15.8938 15.272 16.2564 14.8393C16.5713 14.4693 16.9628 14.1722 17.4038 13.9684C17.8448 13.7646 18.3249 13.6591 18.8107 13.6591C19.2966 13.6591 19.7766 13.7646 20.2176 13.9684C20.6586 14.1722 21.0501 14.4693 21.365 14.8393C21.7095 15.2709 22.0018 15.7417 22.2358 16.2418L23.0022 17.7122L23.0938 17.8955C25.5212 22.6585 27.8935 27.5067 30.0926 32.2688V32.3C30.3456 32.8133 30.5748 33.3872 30.8278 33.8996C30.9882 34.2828 31.1486 34.6036 31.2403 34.9189C31.5055 35.7139 31.5817 36.5597 31.463 37.3893L31.4703 37.3848Z" fill="#49484D"/>
</svg>
