<svg width="128" height="37" viewBox="0 0 128 37" fill="none" xmlns="http://www.w3.org/2000/svg">
<path fill-rule="evenodd" clip-rule="evenodd" d="M75.9151 28.7816C75.0655 29.4341 74.1518 30.0219 73.2381 30.5443V27.8032C73.7593 27.6073 74.3477 27.3461 74.8702 27.1507C76.0445 26.6283 77.0919 27.9344 75.9139 28.7816H75.9151ZM82.1157 24.2113C82.1157 23.6888 81.9851 23.2969 81.8545 23.1016C81.2673 22.3832 76.9588 21.7302 73.2381 22.8398V24.8631C75.5226 24.6678 78.1984 24.6019 78.8534 25.4491C79.7671 26.5587 77.8084 31.3891 76.9594 33.4777C76.6982 34.1308 77.289 34.3932 77.8749 33.9355C80.812 31.455 82.0522 26.9505 82.1175 24.6001V24.2125L82.1157 24.2113ZM73.2381 30.5437C66.3837 34.6563 57.5055 36.8109 49.8028 36.8109C37.3997 36.8109 26.3022 32.2417 17.8811 24.6037C17.1633 24.0166 17.7504 23.1675 18.5994 23.6247C27.6736 28.9104 38.8999 32.1087 50.5212 32.1105C57.8326 32.1105 65.7313 30.7403 73.2387 27.802V30.5437H73.2381ZM73.2381 22.838C72.2373 23.1483 71.2904 23.6109 70.4304 24.2094C69.7786 24.666 69.9086 25.2531 70.5586 25.1884C71.277 25.0578 72.1907 24.9925 73.2356 24.8619V22.841L73.2381 22.838Z" fill="#49484D"/>
<path fill-rule="evenodd" clip-rule="evenodd" d="M125.382 4.62858V4.30265C125.597 4.30469 125.81 4.26386 126.009 4.18256C126.207 4.10125 126.388 3.9811 126.54 3.82913C126.692 3.67716 126.812 3.49642 126.893 3.29749C126.975 3.09856 127.015 2.88542 127.013 2.67056C127.013 1.75624 126.23 1.03846 125.382 1.03846V0.71253C126.425 0.71253 127.341 1.56093 127.341 2.67056C127.34 3.71549 126.427 4.63103 125.383 4.63103L125.382 4.62858ZM125.382 2.86587H125.446C125.577 2.86587 125.642 2.93301 125.642 3.0618C125.642 3.12893 125.709 3.64774 125.77 3.78019H126.226C126.145 3.59461 126.101 3.39496 126.096 3.19241C126.031 2.93118 126.031 2.73525 125.704 2.67056C125.9 2.60586 126.16 2.53994 126.16 2.1487C126.16 1.56093 125.639 1.56093 125.378 1.56093V1.88747C125.509 1.88747 125.702 1.88747 125.702 2.21401C125.702 2.34463 125.636 2.54055 125.376 2.54055V2.86587H125.382ZM125.382 0.71192V1.03785C124.468 1.03785 123.684 1.75563 123.684 2.66995C123.684 3.58548 124.466 4.2996 125.381 4.30204V4.62797C124.271 4.62797 123.358 3.77958 123.358 2.66995C123.358 1.56032 124.271 0.71253 125.383 0.71192H125.382ZM125.382 1.56032H124.598V3.78019H125.055V2.86587H125.382V2.53994H125.055V1.88747H125.382V1.56032ZM95.2477 21.7967V17.8801C98.0559 17.8147 98.186 13.7675 98.186 11.3523C98.186 9.72019 98.1206 7.76155 97.5982 6.19476C97.2069 4.88921 96.4239 4.36674 95.2471 4.30204V0.384769C100.731 0.451908 103.737 5.2188 103.737 11.2858C103.736 17.1617 100.407 21.7332 95.2495 21.7967H95.2477ZM110.981 21.4055H107.26C106.868 21.3402 106.542 21.0789 106.542 20.6871V1.4297C106.607 1.03785 106.868 0.777228 107.26 0.777228H110.786C111.112 0.777228 111.372 1.03968 111.439 1.36439V4.30204H111.504C112.548 1.62562 114.05 0.384769 116.66 0.384769C118.292 0.384769 119.987 0.970711 121.037 2.66995C122.016 4.23857 122.013 6.78376 122.013 8.67587V20.7524C121.949 21.0783 121.687 21.4049 121.295 21.4049H117.509C117.183 21.3396 116.857 21.0783 116.857 20.7524V10.3733C116.857 8.21871 117.118 5.15105 114.506 5.15105C113.593 5.15105 112.744 5.73821 112.287 6.71723C111.765 7.89217 111.699 9.06771 111.699 10.3727V20.6865C111.699 21.0802 111.375 21.4037 110.978 21.4055H110.981ZM70.7693 4.17143V1.4297C70.7693 1.03785 71.0958 0.71192 71.4877 0.71192H83.8255C84.2173 0.71192 84.5457 1.03541 84.5457 1.4297V3.78019C84.5457 4.17143 84.2197 4.69389 83.632 5.5429L77.2318 14.6812C79.5822 14.6165 82.1268 15.0108 84.2814 16.1833C84.7379 16.5068 84.8673 16.9035 84.9345 17.2923V20.1646C84.9345 20.5559 84.4779 21.0136 84.0208 20.8171C80.1688 18.7938 75.1431 18.5972 70.9646 20.8171C70.5081 21.0783 70.0509 20.5553 70.0509 20.1646V17.4229C70.0509 17.031 70.0509 16.2474 70.5081 15.5296L77.9495 4.8886H71.4871C71.0958 4.88737 70.7681 4.63102 70.7681 4.17143H70.7693ZM95.2477 0.384769V4.30204C92.4419 4.30204 92.3107 8.08809 92.3107 10.4386C92.3107 12.8538 92.246 17.8788 95.1854 17.8801H95.2465V21.7967H95.1824C89.6989 21.7967 86.6966 17.031 86.6966 11.0911C86.6966 5.08513 89.7636 0.384769 95.1824 0.384769C95.2477 0.382937 95.2495 0.382937 95.2495 0.384769H95.2477ZM58.105 21.3396V17.8801C58.9534 17.6841 59.6718 17.0964 60.1936 16.1833C60.912 14.8771 60.912 13.7028 60.912 12.2013V11.4182C59.933 11.4182 58.9534 11.4829 58.105 11.6794V8.67647C59.084 8.54525 60.063 8.48055 60.912 8.41524V7.89278C60.912 6.97907 60.9767 5.93475 60.4548 5.15166C59.9977 4.49858 59.084 4.17204 58.3009 4.17204H58.105V0.190064H58.8862C60.7136 0.190064 63.0611 0.714971 64.5015 2.08339C66.3289 3.78019 66.1983 6.06292 66.1983 8.54525V14.4212C66.1983 16.1851 66.9185 16.9664 67.5716 17.8819C67.8335 18.2054 67.9012 18.6021 67.5716 18.8609C66.8538 19.514 65.4824 20.6889 64.6993 21.3414C64.438 21.5373 64.1121 21.5373 63.7862 21.4085C62.5453 20.3642 62.3494 19.9071 61.6322 18.928C60.3902 20.2318 59.3422 20.9459 58.1031 21.3396H58.105ZM58.105 0.189453V4.17143C56.7335 4.30204 55.6245 5.02043 55.2973 6.4566C55.2326 6.78315 54.9708 7.10908 54.6449 7.175L50.9888 6.71784C50.6623 6.65253 50.3363 6.4566 50.467 5.93414C51.2507 1.82338 54.7096 0.382936 58.1031 0.189453H58.105ZM58.105 8.67587V11.6788C56.5382 12.1354 55.2973 13.1144 55.2973 15.2006C55.2973 16.8302 56.1457 17.9411 57.5801 17.9423C57.776 17.9423 57.9072 17.8776 58.1025 17.8776V21.3371C57.2276 21.5578 56.3285 21.6686 55.4261 21.6667C52.2925 21.6667 49.812 19.7087 49.812 15.8561C49.812 12.7885 51.4441 10.6992 53.794 9.72019C55.0373 9.12936 56.6017 8.87301 58.1031 8.67587H58.105ZM8.75326 21.3396V17.8801C9.60288 17.6841 10.386 17.0964 10.8431 16.1833C11.6256 14.8771 11.5609 13.7028 11.5609 12.2013V11.4182C10.5819 11.4182 9.60288 11.4829 8.75326 11.6794V8.67647C9.73288 8.54525 10.7119 8.48055 11.5609 8.41524V7.89278C11.5609 6.97907 11.6256 5.93475 11.1044 5.15166C10.6472 4.49858 9.79819 4.17204 9.0151 4.17204H8.75326V0.190064H9.53452C11.3625 0.190064 13.7094 0.714972 15.2108 2.08217C17.0389 3.77897 16.8405 6.0617 16.8405 8.54403V14.4199C16.8405 16.1839 17.5607 16.9651 18.2748 17.8794C18.4702 18.2029 18.5373 18.5972 18.2095 18.856C17.4918 19.5091 16.1215 20.684 15.3372 21.3365C15.076 21.5324 14.7494 21.5324 14.4235 21.4018C13.1832 20.3575 12.9873 19.9003 12.2695 18.9213C11.0391 20.2318 9.99473 20.9459 8.7557 21.3396H8.75326ZM25.6614 21.4055H21.8753C21.4835 21.3402 21.2223 21.0789 21.2223 20.753V1.49501C21.2223 1.10316 21.5494 0.777228 21.9413 0.777228H25.4002C25.792 0.777228 26.1204 1.10072 26.1204 1.4297V3.9755H26.1857C27.1 1.49501 28.7968 0.384769 31.1479 0.384769C33.4972 0.384769 34.9993 1.49562 36.043 3.9755C36.9567 1.49501 38.98 0.384769 41.1999 0.384769C42.832 0.384769 44.5324 1.03785 45.5762 2.47219C46.7511 4.10185 46.5527 6.45172 46.5527 8.54281V20.6853C46.5527 21.0771 46.2262 21.4037 45.7696 21.4037H42.0483C41.6564 21.3383 41.3952 21.0771 41.3952 20.6853V10.5033C41.3952 9.72019 41.4605 7.63093 41.2646 6.91315C41.0034 5.60699 40.155 5.21575 39.0453 5.21575C38.131 5.21575 37.2173 5.80291 36.8255 6.78437C36.4342 7.76338 36.4342 9.39548 36.4342 10.5051V20.6889C36.4342 21.0808 36.1071 21.4073 35.7158 21.4073H31.9292C31.6032 21.342 31.2767 21.0808 31.2767 20.6889V10.5033C31.2767 8.34932 31.6032 5.15044 28.9921 5.15044C26.251 5.15044 26.3804 8.28401 26.3804 10.5033V20.6871C26.3783 20.8769 26.3021 21.0583 26.1679 21.1926C26.0338 21.3268 25.8524 21.4033 25.6626 21.4055H25.6614ZM8.75326 0.189453V4.17143C7.44831 4.30204 6.27338 5.02043 5.94683 6.4566C5.88153 6.78315 5.6856 7.10908 5.29375 7.175L1.63832 6.71784C1.3777 6.65253 0.985845 6.4566 1.11646 5.93414C1.89955 1.82338 5.42315 0.382936 8.7557 0.189453H8.75326ZM8.75326 8.67587V11.6788C7.18708 12.1354 5.94683 13.1144 5.94683 15.203C5.94683 16.8327 6.79523 17.9435 8.22957 17.9448C8.42489 17.9448 8.62081 17.8801 8.75082 17.8801V21.3396C7.8762 21.5607 6.97714 21.6704 6.07501 21.6661C2.94143 21.6661 0.460938 19.7081 0.460938 15.8555C0.460938 12.7878 2.09303 10.6986 4.50822 9.71958C5.75091 9.12936 7.25422 8.87301 8.7557 8.67587H8.75326Z" fill="#49484D"/>
</svg>
