<svg width="41" height="51" viewBox="0 0 41 51" fill="none" xmlns="http://www.w3.org/2000/svg">
<path d="M39.5428 17.6853C39.2579 17.9064 34.2265 20.7415 34.2265 27.0454C34.2265 34.3369 40.6287 36.9164 40.8203 36.9803C40.7908 37.1375 39.8032 40.513 37.4448 43.9524C35.3419 46.979 33.1456 50.0008 29.8045 50.0008C26.4634 50.0008 25.6035 48.06 21.7465 48.06C17.9877 48.06 16.6513 50.0647 13.5952 50.0647C10.539 50.0647 8.4066 47.264 5.95482 43.8246C3.11487 39.7858 0.820312 33.5114 0.820312 27.5564C0.820312 18.0047 7.03085 12.939 13.1431 12.939C16.3909 12.939 19.0982 15.0714 21.1372 15.0714C23.078 15.0714 26.1047 12.8112 29.7996 12.8112C31.1999 12.8112 36.2312 12.939 39.5428 17.6853ZM28.0455 8.76751C29.5735 6.95446 30.6545 4.4388 30.6545 1.92314C30.6545 1.57429 30.625 1.22052 30.5611 0.935547C28.075 1.0289 25.1171 2.59136 23.3335 4.65991C21.9332 6.25185 20.6262 8.76751 20.6262 11.3176C20.6262 11.7008 20.6901 12.0841 20.7196 12.2069C20.8768 12.2364 21.1323 12.2708 21.3878 12.2708C23.6185 12.2708 26.424 10.7771 28.0455 8.76751Z" fill="#49484D"/>
</svg>
