<svg width="16" height="16" viewBox="0 0 16 16" fill="none" xmlns="http://www.w3.org/2000/svg">
<path d="M7.6921 5.54651C7.7979 5.26054 8.20243 5.26054 8.30823 5.54651L8.7825 6.82823C8.84903 7.00803 8.99083 7.14983 9.17063 7.21636L10.4524 7.69063C10.7383 7.79643 10.7383 8.20096 10.4524 8.30676L9.17063 8.78103C8.99083 8.84756 8.84903 8.98936 8.7825 9.16916L8.30823 10.4509C8.20243 10.7368 7.7979 10.7368 7.6921 10.4509L7.21783 9.16916C7.1513 8.98936 7.0095 8.84756 6.8297 8.78103L5.54798 8.30676C5.262 8.20096 5.262 7.79643 5.54798 7.69063L6.8297 7.21636C7.0095 7.14983 7.1513 7.00803 7.21783 6.82823L7.6921 5.54651Z" stroke="#FBFBFB" stroke-width="1.5"/>
<path d="M8.00016 14.6654C11.6821 14.6654 14.6668 11.6806 14.6668 7.9987C14.6668 4.3168 11.6821 1.33203 8.00016 1.33203C4.31826 1.33203 1.3335 4.3168 1.3335 7.9987C1.3335 11.6806 4.31826 14.6654 8.00016 14.6654Z" stroke="#FBFBFB" stroke-width="1.5"/>
<path d="M5.3335 5.33203C5.78234 2.97749 6.80743 1.33203 8.00016 1.33203C9.1929 1.33203 10.218 2.97749 10.6668 5.33203" stroke="#FBFBFB" stroke-width="1.5" stroke-linecap="round" stroke-linejoin="round"/>
<path d="M5.3335 10.668C5.78234 13.0225 6.80743 14.668 8.00016 14.668C9.1929 14.668 10.218 13.0225 10.6668 10.668" stroke="#FBFBFB" stroke-width="1.5" stroke-linecap="round" stroke-linejoin="round"/>
<path d="M1.3335 8H3.00016M14.6668 8H13.0002" stroke="#FBFBFB" stroke-width="1.5" stroke-linecap="round" stroke-linejoin="round"/>
</svg>
