<svg width="16" height="16" viewBox="0 0 16 16" fill="none" xmlns="http://www.w3.org/2000/svg">
<path d="M4.86313 11.332C2.35363 4.83203 5.90875 1.95703 8 1.33203C10.0913 1.95703 13.6464 4.83203 11.1369 11.332C10.7579 11.1237 9.6 10.707 8 10.707C6.4 10.707 5.24209 11.1237 4.86313 11.332Z" stroke="white" stroke-width="1.125" stroke-linecap="round" stroke-linejoin="round"/>
<path d="M9.33317 6.0013C9.33317 5.26492 8.73624 4.66797 7.99984 4.66797C7.26344 4.66797 6.6665 5.26492 6.6665 6.0013C6.6665 6.7377 7.26344 7.33464 7.99984 7.33464C8.73624 7.33464 9.33317 6.7377 9.33317 6.0013Z" stroke="white" stroke-width="1.125"/>
<path d="M11.6665 10.3704C12.6279 10.4592 13.805 10.7202 14.6541 11.332C14.6541 11.332 15.0028 8.0415 11.9998 7.33203" stroke="white" stroke-width="1.125" stroke-linecap="round" stroke-linejoin="round"/>
<path d="M4.33349 10.3704C3.37212 10.4592 2.19493 10.7202 1.34588 11.332C1.34588 11.332 0.997194 8.0415 4.00016 7.33203" stroke="white" stroke-width="1.125" stroke-linecap="round" stroke-linejoin="round"/>
<path d="M6.3335 12.668C6.3335 12.668 6.61128 14.3346 8.00016 14.668C9.38903 14.3346 9.66683 12.668 9.66683 12.668" stroke="white" stroke-width="1.125" stroke-linecap="round" stroke-linejoin="round"/>
</svg>
