<svg width="16" height="16" viewBox="0 0 16 16" fill="none" xmlns="http://www.w3.org/2000/svg">
<path d="M3.3335 5.33203C3.34043 3.5691 3.4055 2.62604 4.01609 2.01545C4.6995 1.33203 5.79945 1.33203 7.99936 1.33203C10.1992 1.33203 11.2992 1.33203 11.9826 2.01545C12.5932 2.62604 12.6582 3.5691 12.6652 5.33203M3.3335 10.6654C3.34043 12.4283 3.4055 13.3714 4.01609 13.982C4.6995 14.6654 5.79945 14.6654 7.99936 14.6654C10.1992 14.6654 11.2992 14.6654 11.9826 13.982C12.5932 13.3714 12.6582 12.4283 12.6652 10.6654" stroke="#FBFBFB" stroke-width="1.5" stroke-linecap="round"/>
<path d="M7.3335 12.668H8.66683" stroke="#FBFBFB" stroke-width="1.5" stroke-linecap="round" stroke-linejoin="round"/>
<path d="M10.6665 6.66797L11.4842 7.37277C11.828 7.66904 11.9998 7.81724 11.9998 8.0013C11.9998 8.18537 11.828 8.33357 11.4842 8.62984L10.6665 9.33464" stroke="#FBFBFB" stroke-width="1.5" stroke-linecap="round" stroke-linejoin="round"/>
<path d="M5.33333 6.66797L4.51564 7.37277C4.17188 7.66904 4 7.81724 4 8.0013C4 8.18537 4.17188 8.33357 4.51564 8.62984L5.33333 9.33464" stroke="#FBFBFB" stroke-width="1.5" stroke-linecap="round" stroke-linejoin="round"/>
<path d="M8.66683 6L7.3335 10" stroke="#FBFBFB" stroke-width="1.5" stroke-linecap="round" stroke-linejoin="round"/>
</svg>
