<svg width="16" height="16" viewBox="0 0 16 16" fill="none" xmlns="http://www.w3.org/2000/svg">
<path d="M14.6668 5.66667C14.6668 6.58714 13.9206 7.33333 13.0002 7.33333C12.0797 7.33333 11.3335 6.58714 11.3335 5.66667C11.3335 4.74619 12.0797 4 13.0002 4C13.9206 4 14.6668 4.74619 14.6668 5.66667Z" stroke="#FBFBFB" stroke-width="1.5" stroke-linecap="round"/>
<path d="M3.75736 12.2427C2.67157 11.1569 2 9.65687 2 8C2 4.68629 4.68629 2 8 2C9.09287 2 10.1175 2.29218 11 2.80269M5.66667 13.5294C6.38393 13.8325 7.1724 14 8 14C11.3137 14 14 11.3137 14 8C14 7.68987 13.9765 7.3852 13.9311 7.08767" stroke="#FBFBFB" stroke-width="1.5" stroke-linecap="round" stroke-linejoin="round"/>
<path d="M14.1157 4.25212C14.7124 3.01214 14.8513 2.04734 14.4005 1.59739C13.818 1.01592 12.376 1.41917 10.5917 2.52242M12.2034 7.21866C11.532 8.07793 10.7426 8.97133 9.85943 9.85466C6.32458 13.39 2.62664 15.4251 1.5998 14.4C1.01502 13.8163 1.42268 12.3659 2.53496 10.5724" stroke="#FBFBFB" stroke-width="1.5" stroke-linecap="round"/>
</svg>
