<svg width="48" height="48" viewBox="0 0 48 48" fill="none" xmlns="http://www.w3.org/2000/svg">
<rect width="48" height="48" rx="12" fill="url(#paint0_linear_26_1944)"/>
<circle cx="1.5" cy="1.5" r="1.5" transform="matrix(1 0 0 -1 28 20.0002)" stroke="white" stroke-width="1.5" stroke-linecap="round" stroke-linejoin="round"/>
<path d="M14.7742 23.1439C13.7711 24.2643 13.7495 25.9546 14.6702 27.1437C16.4971 29.5033 18.4967 31.5029 20.8563 33.3298C22.0454 34.2505 23.7357 34.2289 24.8561 33.2258C27.8979 30.5022 30.6835 27.6559 33.3719 24.5279C33.6377 24.2187 33.8039 23.8397 33.8412 23.4336C34.0062 21.638 34.3452 16.4647 32.9403 15.0597C31.5353 13.6548 26.362 13.9938 24.5664 14.1588C24.1603 14.1961 23.7813 14.3623 23.472 14.6281C20.3441 17.3165 17.4978 20.1021 14.7742 23.1439Z" stroke="white" stroke-width="1.5"/>
<path d="M23.0863 24.9089L23.6162 24.3782L23.0863 24.9089ZM25.3332 22.6657L24.8033 23.1965L25.3332 22.6657ZM23.218 27.4562L23.7479 27.987L23.218 27.4562ZM20.6665 27.3247L21.1964 26.7939L20.6665 27.3247ZM26.5299 22.5308C26.823 22.2381 26.8234 21.7632 26.5308 21.4701C26.2381 21.177 25.7632 21.1766 25.4701 21.4692L26 22L26.5299 22.5308ZM19.4701 27.4594C19.177 27.752 19.1766 28.2269 19.4692 28.52C19.7619 28.8132 20.2368 28.8136 20.5299 28.5209L20 27.9902L19.4701 27.4594ZM25.0644 24.1568C24.9548 24.5563 25.1898 24.9689 25.5893 25.0785C25.9887 25.1881 26.4014 24.9531 26.511 24.5536L25.7877 24.3552L25.0644 24.1568ZM20.8237 25.8411C20.8601 25.4285 20.5552 25.0645 20.1426 25.0281C19.73 24.9916 19.366 25.2966 19.3295 25.7092L20.0766 25.7752L20.8237 25.8411ZM23.0863 24.9089L23.6162 24.3782C23.2265 23.9891 23.1584 23.7557 23.1528 23.6524C23.1486 23.5741 23.1725 23.427 23.4234 23.1766L22.8935 22.6458L22.3636 22.115C21.9463 22.5317 21.6194 23.0697 21.655 23.7329C21.6893 24.3712 22.0517 24.9358 22.5564 25.4397L23.0863 24.9089ZM22.8935 22.6458L23.4234 23.1766C23.7907 22.8099 24.4087 22.8025 24.8033 23.1965L25.3332 22.6657L25.8631 22.1349C24.8993 21.1727 23.3327 21.1475 22.3636 22.115L22.8935 22.6458ZM23.218 27.4562L22.6881 26.9255C22.3909 27.2222 22.1553 27.2655 21.9783 27.2459C21.7671 27.2226 21.4942 27.0912 21.1964 26.7939L20.6665 27.3247L20.1366 27.8555C20.5798 28.2979 21.1505 28.6637 21.8138 28.7369C22.5113 28.8139 23.181 28.553 23.7479 27.987L23.218 27.4562ZM23.0863 24.9089L22.5564 25.4397C22.9524 25.835 23.0529 26.0944 23.0635 26.2462C23.0719 26.3673 23.0336 26.5806 22.6881 26.9255L23.218 27.4562L23.7479 27.987C24.2667 27.4691 24.6097 26.8552 24.5598 26.1416C24.5121 25.4587 24.1146 24.8757 23.6162 24.3782L23.0863 24.9089ZM25.3332 22.6657L25.8631 23.1965L26.5299 22.5308L26 22L25.4701 21.4692L24.8033 22.1349L25.3332 22.6657ZM20.6665 27.3247L20.1366 26.7939L19.4701 27.4594L20 27.9902L20.5299 28.5209L21.1964 27.8555L20.6665 27.3247ZM25.3332 22.6657L24.8033 23.1965C25.0689 23.4616 25.1535 23.8318 25.0644 24.1568L25.7877 24.3552L26.511 24.5536C26.7394 23.7208 26.5196 22.7903 25.8631 22.1349L25.3332 22.6657ZM20.6665 27.3247L21.1964 26.7939C20.911 26.509 20.7965 26.149 20.8237 25.8411L20.0766 25.7752L19.3295 25.7092C19.262 26.4739 19.5471 27.2669 20.1366 27.8555L20.6665 27.3247Z" fill="white"/>
<defs>
<linearGradient id="paint0_linear_26_1944" x1="21" y1="-8.5" x2="33.5" y2="48" gradientUnits="userSpaceOnUse">
<stop stop-color="#0E091B"/>
<stop offset="0.77856" stop-color="#4A6F97"/>
<stop offset="1" stop-color="#2F3B6A"/>
</linearGradient>
</defs>
</svg>
