<svg width="48" height="48" viewBox="0 0 48 48" fill="none" xmlns="http://www.w3.org/2000/svg">
<rect width="48" height="48" rx="12" fill="url(#paint0_linear_26_1969)"/>
<path d="M15 24H24V25.5H15V24ZM13.5 20.25H21V21.75H13.5V20.25Z" fill="white"/>
<path d="M34.4388 24.4545L32.1888 19.2045C32.1309 19.0696 32.0348 18.9547 31.9123 18.8739C31.7898 18.7931 31.6463 18.75 31.4995 18.75H29.2495V17.25C29.2495 17.0511 29.1705 16.8603 29.0299 16.7197C28.8892 16.579 28.6984 16.5 28.4995 16.5H16.4995V18H27.7495V27.417C27.408 27.6157 27.109 27.8799 26.8699 28.1945C26.6308 28.509 26.4561 28.8678 26.356 29.25H21.643C21.4605 28.543 21.0263 27.9269 20.422 27.517C19.8177 27.1072 19.0846 26.9319 18.3603 27.0239C17.6359 27.1159 16.97 27.4689 16.4873 28.0168C16.0046 28.5647 15.7383 29.2698 15.7383 30C15.7383 30.7302 16.0046 31.4353 16.4873 31.9832C16.97 32.5311 17.6359 32.8841 18.3603 32.9761C19.0846 33.0681 19.8177 32.8928 20.422 32.483C21.0263 32.0731 21.4605 31.457 21.643 30.75H26.356C26.5192 31.3937 26.8923 31.9646 27.4164 32.3724C27.9404 32.7802 28.5855 33.0016 29.2495 33.0016C29.9136 33.0016 30.5586 32.7802 31.0827 32.3724C31.6067 31.9646 31.9799 31.3937 32.143 30.75H33.7495C33.9484 30.75 34.1392 30.671 34.2799 30.5303C34.4205 30.3897 34.4995 30.1989 34.4995 30V24.75C34.4995 24.6484 34.4788 24.5479 34.4388 24.4545ZM18.7495 31.5C18.4528 31.5 18.1628 31.412 17.9162 31.2472C17.6695 31.0824 17.4772 30.8481 17.3637 30.574C17.2502 30.2999 17.2205 29.9983 17.2783 29.7074C17.3362 29.4164 17.4791 29.1491 17.6889 28.9393C17.8986 28.7296 18.1659 28.5867 18.4569 28.5288C18.7479 28.4709 19.0495 28.5006 19.3235 28.6142C19.5976 28.7277 19.8319 28.92 19.9967 29.1666C20.1615 29.4133 20.2495 29.7033 20.2495 30C20.2495 30.3978 20.0915 30.7794 19.8102 31.0607C19.5289 31.342 19.1473 31.5 18.7495 31.5ZM29.2495 20.25H31.0045L32.6125 24H29.2495V20.25ZM29.2495 31.5C28.9528 31.5 28.6628 31.412 28.4162 31.2472C28.1695 31.0824 27.9772 30.8481 27.8637 30.574C27.7502 30.2999 27.7205 29.9983 27.7783 29.7074C27.8362 29.4164 27.9791 29.1491 28.1889 28.9393C28.3986 28.7296 28.6659 28.5867 28.9569 28.5288C29.2479 28.4709 29.5495 28.5006 29.8235 28.6142C30.0976 28.7277 30.3319 28.92 30.4967 29.1666C30.6615 29.4133 30.7495 29.7033 30.7495 30C30.7495 30.3978 30.5915 30.7794 30.3102 31.0607C30.0289 31.342 29.6473 31.5 29.2495 31.5ZM32.9995 29.25H32.143C31.9778 28.6076 31.6041 28.0381 31.0804 27.6309C30.5568 27.2238 29.9128 27.0018 29.2495 27V25.5H32.9995V29.25Z" fill="white"/>
<defs>
<linearGradient id="paint0_linear_26_1969" x1="21" y1="-8.5" x2="33.5" y2="48" gradientUnits="userSpaceOnUse">
<stop stop-color="#0E091B"/>
<stop offset="0.77856" stop-color="#4A6F97"/>
<stop offset="1" stop-color="#2F3B6A"/>
</linearGradient>
</defs>
</svg>
