<svg width="136" height="56" viewBox="0 0 136 56" fill="none" xmlns="http://www.w3.org/2000/svg">
<path d="M5.28 6.8C6.28267 6.8 7.12 7.136 7.792 7.808C8.464 8.48 8.8 9.31733 8.8 10.32C8.8 11.3227 8.464 12.16 7.792 12.832C7.12 13.504 6.28267 13.84 5.28 13.84H2.4V18H1.28V6.8H5.28ZM5.28 12.784C5.97333 12.784 6.544 12.5547 6.992 12.096C7.45067 11.6267 7.68 11.0347 7.68 10.32C7.68 9.60533 7.45067 9.01867 6.992 8.56C6.544 8.09067 5.97333 7.856 5.28 7.856H2.4V12.784H5.28ZM16.6209 16.992C15.8102 17.792 14.8182 18.192 13.6449 18.192C12.4715 18.192 11.4742 17.792 10.6529 16.992C9.84221 16.1813 9.43688 15.184 9.43688 14C9.43688 12.816 9.84221 11.824 10.6529 11.024C11.4742 10.2133 12.4715 9.808 13.6449 9.808C14.8182 9.808 15.8102 10.2133 16.6209 11.024C17.4422 11.824 17.8529 12.816 17.8529 14C17.8529 15.184 17.4422 16.1813 16.6209 16.992ZM11.4049 16.256C12.0129 16.864 12.7595 17.168 13.6449 17.168C14.5302 17.168 15.2769 16.864 15.8849 16.256C16.4929 15.6373 16.7969 14.8853 16.7969 14C16.7969 13.1147 16.4929 12.368 15.8849 11.76C15.2769 11.1413 14.5302 10.832 13.6449 10.832C12.7595 10.832 12.0129 11.1413 11.4049 11.76C10.7969 12.368 10.4929 13.1147 10.4929 14C10.4929 14.8853 10.7969 15.6373 11.4049 16.256ZM28.9395 10H30.0275L27.5635 18H26.4115L24.3475 11.552L22.2835 18H21.1315L18.6675 10H19.7555L21.7235 16.64L23.8195 10H24.8755L26.9715 16.64L28.9395 10ZM35.0035 9.808C36.1875 9.808 37.1422 10.2293 37.8675 11.072C38.6035 11.904 38.9715 12.8907 38.9715 14.032C38.9715 14.1493 38.9608 14.3147 38.9395 14.528H31.9155C32.0222 15.3387 32.3635 15.984 32.9395 16.464C33.5262 16.9333 34.2462 17.168 35.0995 17.168C35.7075 17.168 36.2302 17.0453 36.6675 16.8C37.1155 16.544 37.4515 16.2133 37.6755 15.808L38.6035 16.352C38.2515 16.9173 37.7715 17.3653 37.1635 17.696C36.5555 18.0267 35.8622 18.192 35.0835 18.192C33.8248 18.192 32.8008 17.7973 32.0115 17.008C31.2222 16.2187 30.8275 15.216 30.8275 14C30.8275 12.8053 31.2168 11.808 31.9955 11.008C32.7742 10.208 33.7768 9.808 35.0035 9.808ZM35.0035 10.832C34.1715 10.832 33.4728 11.0827 32.9075 11.584C32.3528 12.0747 32.0222 12.7147 31.9155 13.504H37.8835C37.7768 12.6613 37.4515 12.0053 36.9075 11.536C36.3635 11.0667 35.7288 10.832 35.0035 10.832ZM41.7073 11.328C42.1979 10.3573 43.0406 9.872 44.2352 9.872V10.896C43.5099 10.896 42.9073 11.1093 42.4273 11.536C41.9473 11.9627 41.7073 12.6347 41.7073 13.552V18H40.6513V10H41.7073V11.328ZM48.8941 9.808C50.0781 9.808 51.0328 10.2293 51.7581 11.072C52.4941 11.904 52.8621 12.8907 52.8621 14.032C52.8621 14.1493 52.8515 14.3147 52.8301 14.528H45.8061C45.9128 15.3387 46.2541 15.984 46.8301 16.464C47.4168 16.9333 48.1368 17.168 48.9901 17.168C49.5981 17.168 50.1208 17.0453 50.5581 16.8C51.0061 16.544 51.3421 16.2133 51.5661 15.808L52.4941 16.352C52.1421 16.9173 51.6621 17.3653 51.0541 17.696C50.4461 18.0267 49.7528 18.192 48.9741 18.192C47.7155 18.192 46.6915 17.7973 45.9021 17.008C45.1128 16.2187 44.7181 15.216 44.7181 14C44.7181 12.8053 45.1075 11.808 45.8861 11.008C46.6648 10.208 47.6675 9.808 48.8941 9.808ZM48.8941 10.832C48.0621 10.832 47.3635 11.0827 46.7981 11.584C46.2435 12.0747 45.9128 12.7147 45.8061 13.504H51.7741C51.6675 12.6613 51.3421 12.0053 50.7981 11.536C50.2541 11.0667 49.6195 10.832 48.8941 10.832ZM61.4219 6.8H62.4779V18H61.4219V16.432C60.6859 17.6053 59.6085 18.192 58.1899 18.192C57.0485 18.192 56.0725 17.7867 55.2619 16.976C54.4619 16.1653 54.0619 15.1733 54.0619 14C54.0619 12.8267 54.4619 11.8347 55.2619 11.024C56.0725 10.2133 57.0485 9.808 58.1899 9.808C59.6085 9.808 60.6859 10.3947 61.4219 11.568V6.8ZM56.0299 16.256C56.6379 16.864 57.3845 17.168 58.2699 17.168C59.1552 17.168 59.9019 16.864 60.5099 16.256C61.1179 15.6373 61.4219 14.8853 61.4219 14C61.4219 13.1147 61.1179 12.368 60.5099 11.76C59.9019 11.1413 59.1552 10.832 58.2699 10.832C57.3845 10.832 56.6379 11.1413 56.0299 11.76C55.4219 12.368 55.1179 13.1147 55.1179 14C55.1179 14.8853 55.4219 15.6373 56.0299 16.256ZM73.0018 9.808C74.1431 9.808 75.1138 10.2133 75.9138 11.024C76.7244 11.8347 77.1298 12.8267 77.1298 14C77.1298 15.1733 76.7244 16.1653 75.9138 16.976C75.1138 17.7867 74.1431 18.192 73.0018 18.192C71.5831 18.192 70.5058 17.6053 69.7698 16.432V18H68.7138V6.8H69.7698V11.568C70.5058 10.3947 71.5831 9.808 73.0018 9.808ZM70.6818 16.256C71.2898 16.864 72.0364 17.168 72.9218 17.168C73.8071 17.168 74.5538 16.864 75.1618 16.256C75.7698 15.6373 76.0738 14.8853 76.0738 14C76.0738 13.1147 75.7698 12.368 75.1618 11.76C74.5538 11.1413 73.8071 10.832 72.9218 10.832C72.0364 10.832 71.2898 11.1413 70.6818 11.76C70.0738 12.368 69.7698 13.1147 69.7698 14C69.7698 14.8853 70.0738 15.6373 70.6818 16.256ZM84.3331 10H85.4531L82.0291 18.736C81.7198 19.5253 81.2771 20.144 80.7011 20.592C80.1358 21.0507 79.5011 21.2533 78.7971 21.2V20.208C79.7571 20.3147 80.4878 19.76 80.9891 18.544L81.1971 18.048L77.6131 10H78.7331L81.7411 16.704L84.3331 10Z" fill="white"/>
<path d="M2.23145 33.1016V53.6943L1.11523 54.752L0 53.6943V33.1016L1.11523 32.2646L2.23145 33.1016ZM0.269531 33.2363V33.2373L1.11523 32.6025L1.96094 33.2373V33.2363L1.11523 32.6016L0.269531 33.2363Z" fill="white"/>
<path d="M7.80176 39.7334H7.94043V39.8506L22.7666 52.3564L23.2734 54.2061L21.3438 54.084L7.94043 42.7695V53.7637L6.8252 54.7393L5.70996 53.7637V39.7334H7.57812L7.6709 39.6221L7.80176 39.7334ZM7.6709 42.1895L21.4492 53.8203V53.8193L7.6709 42.1885V42.1895ZM24.3613 32.9766V47.0059H22.4932L22.4004 47.1172L22.2695 47.0059H22.1309V46.8887L7.30469 34.3828L6.79785 32.5332L8.72754 32.6562L22.1309 43.9697V32.9766L23.2461 32L24.3613 32.9766Z" fill="white"/>
<path d="M38.8037 32.1211C45.2587 32.1211 50.4912 37.3537 50.4912 43.8086C50.4912 50.2635 45.2587 55.4961 38.8037 55.4961C32.3488 55.4961 27.1162 50.2635 27.1162 43.8086C27.1162 37.3537 32.3488 32.1211 38.8037 32.1211ZM41.6572 54.8662C40.7452 55.1009 39.789 55.2256 38.8037 55.2256C38.4094 55.2256 38.0197 55.206 37.6357 55.167L37.0645 55.0947C37.6316 55.1814 38.2124 55.2266 38.8037 55.2266C39.9861 55.2266 41.1266 55.0465 42.1992 54.7129L41.6572 54.8662ZM35.9502 54.8672C36.1327 54.9141 36.317 54.9561 36.5029 54.9941L35.9502 54.8662C35.7678 54.8193 35.587 54.7685 35.4082 54.7129L35.9502 54.8672ZM33.3613 53.8486C33.6848 54.0244 34.0179 54.1847 34.3594 54.3291L33.8535 54.0996C33.6873 54.0195 33.5229 53.9364 33.3613 53.8486ZM44.2461 53.8477C43.9225 54.0235 43.5896 54.1846 43.248 54.3291L43.7539 54.1006C43.9204 54.0204 44.0842 53.9356 44.2461 53.8477ZM38.8037 34.2119C33.5038 34.2119 29.207 38.5088 29.207 43.8086C29.207 49.1084 33.5038 53.4052 38.8037 53.4053C44.1036 53.4053 48.4004 49.1084 48.4004 43.8086C48.4004 38.5088 44.1036 34.2119 38.8037 34.2119ZM46.877 51.8818C46.3604 52.3983 45.7949 52.866 45.1875 53.2764L45.6357 52.958C46.2219 52.5196 46.7644 52.0261 47.2559 51.4854L46.877 51.8818ZM30.8701 52.0156C31.1597 52.2956 31.4644 52.5593 31.7822 52.8076C31.4644 52.5593 31.1597 52.2956 30.8701 52.0156ZM48.5684 49.7295C48.3777 50.0432 48.1722 50.3468 47.9531 50.6396L48.2715 50.1924C48.374 50.0406 48.4731 49.8863 48.5684 49.7295ZM28.1152 47.8271C28.4899 48.8232 28.9994 49.7525 29.6221 50.5938C28.9993 49.7526 28.4899 48.8231 28.1152 47.8271ZM50.0898 45.5479C49.8876 46.8705 49.4589 48.1187 48.8438 49.251L49.0957 48.7588C49.3362 48.2597 49.5412 47.7403 49.708 47.2041C49.7636 47.0253 49.8153 46.8446 49.8623 46.6621C49.9561 46.2974 50.0321 45.9257 50.0898 45.5479ZM50.2217 43.8076C50.2217 44.005 50.2169 44.2016 50.207 44.3965C50.2169 44.2018 50.2217 44.0058 50.2217 43.8086V43.8076ZM29.1377 41.8203C29.072 42.1414 29.0219 42.4682 28.9883 42.7998C29.022 42.4682 29.072 42.1414 29.1377 41.8203ZM49.8916 41.082C49.9261 41.2228 49.96 41.3641 49.9893 41.5068C49.96 41.3641 49.9261 41.2228 49.8916 41.082ZM31.1904 37.5322C30.4866 38.385 29.9234 39.3581 29.5361 40.416L29.7129 39.9688C30.0874 39.0832 30.587 38.2633 31.1904 37.5322ZM47.623 39.3857C47.7906 39.7191 47.9418 40.0623 48.0713 40.416L47.8945 39.9678C47.8109 39.77 47.719 39.5766 47.623 39.3857ZM49.4043 39.5684C49.446 39.6726 49.4896 39.7762 49.5283 39.8818C49.4896 39.7761 49.446 39.6726 49.4043 39.5684ZM32.1699 36.5049C32.053 36.6111 31.9388 36.7203 31.8271 36.832L32.1699 36.5059C32.2869 36.3996 32.4063 36.296 32.5283 36.1953L32.1699 36.5049ZM45.4375 36.5059C45.5542 36.612 45.6687 36.7205 45.7803 36.832L45.4375 36.5049C45.3207 36.3987 45.2009 36.2958 45.0791 36.1953L45.4375 36.5059ZM34.9629 34.7178C34.6678 34.8426 34.3802 34.9819 34.1006 35.1338C34.5201 34.9059 34.9577 34.707 35.4111 34.541L34.9629 34.7178ZM44.3203 35.627V35.6279V35.627ZM37.3008 34.0557V34.0566V34.0557ZM40.3057 34.0557C40.4691 34.0806 40.6313 34.1097 40.792 34.1426C40.6313 34.1097 40.4691 34.0806 40.3057 34.0557Z" fill="white"/>
<path d="M124.161 32.1211C130.616 32.1211 135.849 37.3538 135.849 43.8086C135.849 50.2634 130.616 55.496 124.161 55.4961C117.706 55.4961 112.474 50.2635 112.474 43.8086C112.474 37.3537 117.706 32.1211 124.161 32.1211ZM122.993 55.168C123.185 55.1875 123.379 55.202 123.573 55.2119C123.768 55.2218 123.964 55.2266 124.161 55.2266C124.358 55.2266 124.554 55.2218 124.749 55.2119C124.943 55.2021 125.136 55.1874 125.328 55.168L125.899 55.0947C125.333 55.1813 124.752 55.2256 124.161 55.2256C123.57 55.2256 122.989 55.1814 122.422 55.0947L122.993 55.168ZM127.015 54.8662V54.8672V54.8662ZM119.211 54.0996V54.1006V54.0996ZM129.604 53.8477C129.442 53.9356 129.278 54.0204 129.111 54.1006C129.444 53.9402 129.768 53.764 130.082 53.5732L129.604 53.8477ZM124.161 34.2119C118.861 34.2119 114.564 38.5088 114.564 43.8086C114.564 49.1084 118.861 53.4053 124.161 53.4053C129.461 53.4052 133.758 49.1084 133.758 43.8086C133.758 38.5088 129.461 34.212 124.161 34.2119ZM116.483 52.2607C116.754 52.5064 117.036 52.7389 117.329 52.958L116.898 52.6182C116.616 52.3855 116.345 52.1401 116.087 51.8818L116.483 52.2607ZM132.612 51.4854C132.121 52.0261 131.578 52.5197 130.992 52.958L131.424 52.6191C131.988 52.1537 132.506 51.6352 132.972 51.0713L132.612 51.4854ZM114.502 49.8945C114.663 50.1495 114.832 50.3989 115.012 50.6396L114.693 50.1914C114.627 50.0939 114.565 49.9942 114.502 49.8945ZM133.926 49.7295C133.735 50.0432 133.53 50.3468 133.311 50.6396L133.629 50.1924C133.731 50.0406 133.83 49.8863 133.926 49.7295ZM113.641 48.2529C113.713 48.4234 113.789 48.5917 113.869 48.7578C113.789 48.5914 113.713 48.4227 113.641 48.252V48.2529ZM134.682 48.252C134.609 48.423 134.533 48.5921 134.453 48.7588C134.533 48.5924 134.609 48.4237 134.682 48.2529V48.252ZM135.22 46.6611C135.173 46.8439 135.121 47.025 135.065 47.2041C135.121 47.0252 135.173 46.8446 135.22 46.6621V46.6611ZM135.579 43.8076C135.579 44.3991 135.534 44.9806 135.447 45.5479C135.534 44.9808 135.579 44.3999 135.579 43.8086V43.8076ZM135.22 40.9541C135.361 41.5018 135.462 42.0654 135.521 42.6416C135.462 42.0657 135.361 41.5024 135.22 40.9551V40.9541ZM115.268 39.5303C115.198 39.6744 115.133 39.8208 115.07 39.9688C115.133 39.8211 115.198 39.6751 115.268 39.5312V39.5303ZM119.884 34.915C118.446 35.6078 117.202 36.639 116.255 37.9053L116.548 37.5332C117.151 36.8023 117.857 36.1598 118.645 35.6279C118.907 35.4506 119.178 35.2857 119.458 35.1338C119.738 34.9819 120.025 34.8426 120.32 34.7178L119.884 34.915ZM130.795 36.5059V36.5049V36.5059ZM128.438 34.916C128.582 34.9853 128.724 35.0578 128.864 35.1338C129.144 35.2857 129.415 35.4506 129.678 35.6279L129.677 35.627C129.152 35.2724 128.591 34.9674 128.001 34.7178L128.438 34.916ZM122.658 34.0557C122.005 34.1555 121.373 34.3197 120.769 34.541L121.228 34.3857C121.691 34.2417 122.169 34.1305 122.658 34.0557ZM125.663 34.0566C125.99 34.1066 126.312 34.1718 126.627 34.2529C126.312 34.1718 125.99 34.1066 125.663 34.0566ZM124.748 32.4053C124.762 32.406 124.775 32.4075 124.789 32.4082C124.776 32.4075 124.762 32.406 124.749 32.4053L124.161 32.3906L124.748 32.4053Z" fill="white"/>
<path d="M98.3164 32.1333C101.073 32.0053 103.787 32.8568 105.977 34.5376C108.166 36.2184 109.689 38.6203 110.277 41.3169C110.83 43.8506 110.524 46.4919 109.415 48.8257L110.979 50.1313V51.6362L109.569 51.9214L102.169 45.8267L102.321 44.4673L103.675 44.0347L107.745 47.4312C108.475 45.6417 108.649 43.6657 108.234 41.7632C107.751 39.549 106.5 37.5769 104.702 36.1968C102.905 34.8168 100.677 34.117 98.4131 34.2222C96.1494 34.3273 93.9958 35.2303 92.334 36.771C90.6721 38.3118 89.6087 40.3917 89.333 42.6411C89.0574 44.8903 89.5868 47.1646 90.8271 49.061C92.0677 50.9576 93.9399 52.3536 96.1113 53.0024C97.8878 53.5332 99.7712 53.5362 101.535 53.0239L97.7471 49.9048L97.8994 48.5454L99.2539 48.1128L106.558 54.2095V55.7144L105.148 55.9995L103.414 54.5718C100.912 55.6307 98.1182 55.7848 95.5127 55.0063C92.8681 54.2162 90.588 52.5155 89.0771 50.2056C87.5664 47.8957 86.922 45.1257 87.2578 42.3862C87.5937 39.6467 88.8881 37.1144 90.9121 35.2378C92.9361 33.3612 95.5593 32.2614 98.3164 32.1333ZM103.386 54.1987L105.221 55.7095L103.386 54.1978V54.1987ZM98.6963 55.2222C98.7995 55.2236 98.9027 55.2245 99.0059 55.2231C98.9027 55.2245 98.7995 55.2236 98.6963 55.2222ZM98.1963 55.2046C98.2998 55.2106 98.4033 55.216 98.5068 55.2192C98.4033 55.216 98.2998 55.2106 98.1963 55.2046ZM99.2031 55.2183C99.2924 55.2156 99.3815 55.2123 99.4707 55.2075C99.3816 55.2123 99.2924 55.2156 99.2031 55.2183ZM97.5977 55.1548C97.7388 55.1705 97.88 55.1844 98.0215 55.1948C97.88 55.1844 97.7388 55.1705 97.5977 55.1548ZM99.7236 55.1899C99.806 55.1837 99.8885 55.1785 99.9707 55.1704C99.8885 55.1785 99.806 55.1837 99.7236 55.1899ZM97.1484 55.0952C97.2818 55.1154 97.4151 55.1345 97.5488 55.1499C97.4151 55.1345 97.2818 55.1154 97.1484 55.0952ZM100.191 55.145C100.28 55.1346 100.369 55.1244 100.458 55.1118C100.369 55.1244 100.28 55.1346 100.191 55.145ZM96.6748 55.0132C96.7983 55.0373 96.9219 55.0606 97.0459 55.0806C96.9219 55.0606 96.7983 55.0373 96.6748 55.0132ZM100.692 55.0747C100.773 55.0617 100.853 55.0485 100.933 55.0337C100.853 55.0485 100.773 55.0617 100.692 55.0747ZM95.1094 54.5933C95.268 54.6484 95.4283 54.7003 95.5898 54.7485C95.9091 54.8439 96.2315 54.924 96.5557 54.9907C96.2316 54.924 95.909 54.8429 95.5898 54.7476C95.4284 54.6993 95.268 54.6484 95.1094 54.5933ZM101.169 54.9868C101.252 54.9696 101.336 54.9522 101.419 54.9331C101.336 54.9522 101.252 54.9696 101.169 54.9868ZM101.658 54.8745C101.735 54.8551 101.811 54.8359 101.888 54.8149C101.811 54.8359 101.735 54.8551 101.658 54.8745ZM102.129 54.7456C102.207 54.7222 102.285 54.6975 102.363 54.6724C102.285 54.6975 102.207 54.7222 102.129 54.7456ZM102.602 54.5933C102.678 54.5667 102.754 54.5385 102.83 54.5103C102.754 54.5385 102.678 54.5667 102.602 54.5933ZM103.074 54.4165C103.106 54.4039 103.138 54.3933 103.17 54.3804C103.202 54.3673 103.235 54.3547 103.267 54.3413C103.317 54.3201 103.368 54.2979 103.419 54.2759L103.074 54.4165ZM88.3564 48.2896C88.6178 48.9022 88.9339 49.4942 89.3027 50.0581C90.502 51.8916 92.1974 53.3324 94.1768 54.2222L93.7256 54.0073C91.94 53.1086 90.4107 51.7506 89.3037 50.0581C88.9348 49.4941 88.6179 48.9023 88.3564 48.2896ZM98.1357 48.853L98.0312 49.7896L102.089 53.1304C102.065 53.1387 102.04 53.1456 102.016 53.1538C102.04 53.1456 102.065 53.1388 102.09 53.1304L98.0322 49.7896L98.1357 48.853ZM102.558 44.7749L102.453 45.7114L109.643 51.6313L102.454 45.7114L102.558 44.7749ZM87.7373 46.396C87.7749 46.5577 87.8167 46.7185 87.8613 46.8784L87.7383 46.396C87.7007 46.2343 87.6663 46.0719 87.6357 45.9087L87.7373 46.396ZM87.457 44.4243C87.475 44.7571 87.5078 45.0884 87.5547 45.4175L87.4961 44.9224C87.4799 44.7568 87.466 44.5908 87.457 44.4243ZM89.1152 37.8599C88.273 39.2394 87.7249 40.7915 87.5254 42.4194C87.4844 42.7539 87.4586 43.0889 87.4473 43.4233L87.4756 42.9214C87.4886 42.754 87.5059 42.5867 87.5264 42.4194C87.7259 40.7916 88.2732 39.2393 89.1152 37.8599ZM108.673 42.8071C108.635 42.4383 108.578 42.0699 108.498 41.7046C108.001 39.4284 106.715 37.4017 104.867 35.9829L105.207 36.2563C106.873 37.6565 108.032 39.5716 108.498 41.7056C108.578 42.0707 108.635 42.4385 108.673 42.8071ZM91.4678 37.2759C91.3328 37.4286 91.203 37.5853 91.0781 37.7456C91.203 37.5853 91.3328 37.4286 91.4678 37.2759ZM89.6465 37.0669C89.5375 37.2158 89.4325 37.3672 89.3311 37.521C89.4325 37.3672 89.5375 37.2158 89.6465 37.0669ZM92.0098 36.7104C91.9015 36.8149 91.7954 36.9209 91.6924 37.0298C91.7954 36.9209 91.9015 36.8149 92.0098 36.7104ZM98.8369 33.9419C99.9973 33.9393 101.142 34.1418 102.221 34.5327C102.356 34.5816 102.489 34.6342 102.622 34.689C103.286 34.9628 103.921 35.3091 104.516 35.7251L104.154 35.4839C102.568 34.4747 100.723 33.9376 98.8369 33.9419ZM93.2617 33.8579C92.7754 34.1314 92.3073 34.4395 91.8633 34.7837C92.3072 34.4395 92.7755 34.1314 93.2617 33.8579ZM98.3281 32.4028C97.8232 32.4263 97.3228 32.4828 96.8301 32.5718C96.5015 32.6311 96.1764 32.705 95.8555 32.7925C95.1604 32.982 94.4859 33.238 93.8398 33.5542C95.2317 32.8729 96.7578 32.4759 98.3291 32.4028C98.4972 32.395 98.6653 32.3905 98.833 32.3901C98.6651 32.3905 98.4965 32.395 98.3281 32.4028ZM108.702 43.1577C108.695 43.048 108.687 42.9382 108.676 42.8286C108.687 42.9382 108.695 43.048 108.702 43.1577Z" fill="white"/>
<path d="M67.7324 33.918L61.4082 51.4492L60.8955 53.2559L59.5947 54.7988L58.293 53.2559L57.7529 51.3525L51.4629 33.918L52.2979 32.9658L53.5527 33.0908L59.5977 49.8838L65.6436 33.0908L66.8975 32.9658L67.7324 33.918ZM65.8389 33.3418L59.5977 50.6807L53.3564 33.3418V33.3428L59.5977 50.6807L65.8389 33.3428V33.3418Z" fill="white"/>
<path d="M70.3076 49.459H85.0957L85.0762 49.707L86.1172 53.4443L85.4053 54.6562L84.0195 54.1533L83.3291 51.7295H71.7393L71.0488 54.1533L69.6631 54.6562L68.9512 53.4443L70.0156 49.623V49.459H70.0615L70.0811 49.3887L70.3076 49.459ZM84.8018 49.7334L85.8252 53.4062L85.2861 54.3262L85.8271 53.4062L84.8027 49.7334L84.8037 49.7295H84.8027L84.8018 49.7334ZM71.5342 51.46L70.8262 53.9473L70.4473 54.085L70.8271 53.9473L71.5352 51.46H71.5342ZM70.2656 49.7295L70.2842 49.7354V49.7344L70.2666 49.7295H70.2656ZM82.9629 44.8184H72.0723L77.5176 32.1299L82.9629 44.8184ZM77.5166 32.8145L82.5518 44.5488H82.5527L77.5176 32.8135L77.5166 32.8145ZM75.0469 42.8574H75.0488L77.5166 37.1045V37.1035L75.0469 42.8574ZM75.458 42.5879H79.5771L77.5176 37.7871L75.458 42.5879Z" fill="white"/>
</svg>
