<svg width="151" height="33" viewBox="0 0 151 33" fill="none" xmlns="http://www.w3.org/2000/svg">
<path d="M150.145 14.977V12.3379H146.869V8.23633L146.759 8.27148L143.682 9.20898H143.624V12.3145H138.768V10.5801C138.768 9.7832 138.955 9.16211 139.307 8.75195C139.658 8.3418 140.174 8.13672 140.807 8.13672C141.275 8.13672 141.768 8.25391 142.236 8.46484L142.354 8.51172V5.74492L142.307 5.72148C141.861 5.56328 141.252 5.48125 140.502 5.48125C139.553 5.48125 138.686 5.69219 137.924 6.10703C137.162 6.50547 136.564 7.10313 136.154 7.85313C135.732 8.60312 135.521 9.47031 135.521 10.4195V12.318H133.248V14.9547H135.533V26.0641H138.803V14.9547H143.662V22.0094C143.662 24.9156 145.029 26.3922 147.741 26.3922C148.186 26.3922 148.655 26.3359 149.123 26.2398C149.61 26.1344 149.944 26.0289 150.131 25.9234L150.178 25.9V23.2398L150.046 23.3289C149.87 23.4461 149.647 23.548 149.389 23.6184C149.132 23.6887 148.909 23.7355 148.743 23.7355C148.11 23.7355 147.641 23.5715 147.353 23.2352C147.055 22.9012 146.907 22.3094 146.907 21.4773V14.9852H150.165L150.158 14.9688L150.145 14.977ZM125.899 23.7426C124.712 23.7426 123.775 23.3477 123.11 22.5707C122.45 21.7914 122.114 20.6793 122.114 19.266C122.114 17.8082 122.45 16.6645 123.114 15.8723C123.775 15.0848 124.703 14.684 125.875 14.684C127.011 14.684 127.902 15.066 128.558 15.8207C129.214 16.5801 129.543 17.7121 129.543 19.1863C129.543 20.6793 129.238 21.8266 128.629 22.593C128.019 23.3547 127.105 23.7414 125.91 23.7414L125.899 23.7426ZM126.05 12.0074C123.789 12.0074 121.986 12.6707 120.702 13.9809C119.425 15.2934 118.771 17.1051 118.771 19.3715C118.771 21.5277 119.404 23.2562 120.661 24.516C121.915 25.7816 123.622 26.4379 125.732 26.4379C127.925 26.4379 129.693 25.7582 130.972 24.4398C132.261 23.1133 132.901 21.3156 132.901 19.1043C132.901 16.9176 132.292 15.1715 131.085 13.9246C129.878 12.666 128.186 12.0309 126.046 12.0309L126.05 12.0074ZM113.483 12.0309C111.936 12.0309 110.666 12.4246 109.686 13.2027C108.711 13.9855 108.21 15.0074 108.21 16.2496C108.21 16.8988 108.32 17.4684 108.533 17.9605C108.744 18.4457 109.072 18.8746 109.511 19.2355C109.944 19.5871 110.612 19.9621 111.503 20.3465C112.253 20.6512 112.804 20.909 113.16 21.1199C113.511 21.3156 113.76 21.5184 113.886 21.7141C114.027 21.9016 114.097 22.1711 114.097 22.4875C114.097 23.418 113.408 23.8656 111.988 23.8656C111.458 23.8656 110.856 23.7555 110.197 23.5375C109.533 23.3219 108.916 23.0102 108.361 22.6094L108.22 22.5156V25.6562L108.267 25.6797C108.736 25.8906 109.314 26.0781 110.002 26.2188C110.687 26.3711 111.314 26.4414 111.853 26.4414C113.529 26.4414 114.877 26.043 115.861 25.2648C116.845 24.4773 117.349 23.425 117.349 22.143C117.349 21.2172 117.08 20.4203 116.546 19.7816C116.019 19.1418 115.105 18.5582 113.824 18.0426C112.813 17.6324 112.16 17.2926 111.879 17.0348C111.621 16.7816 111.5 16.4254 111.5 15.9754C111.5 15.577 111.664 15.2559 111.998 14.998C112.334 14.7344 112.802 14.6031 113.388 14.6031C113.933 14.6031 114.49 14.6852 115.052 14.8551C115.603 15.0285 116.089 15.2535 116.494 15.5301L116.631 15.6238V12.6238L116.584 12.6004C116.203 12.4363 115.709 12.2992 115.107 12.1902C114.51 12.0766 113.967 12.0262 113.496 12.0262L113.483 12.0309ZM99.668 23.7566C98.4844 23.7566 97.5469 23.3652 96.8906 22.5848C96.2227 21.8113 95.8887 20.698 95.8887 19.2801C95.8887 17.827 96.2238 16.6785 96.8895 15.8898C97.5457 15.1023 98.4762 14.7016 99.6434 14.7016C100.78 14.7016 101.682 15.0836 102.333 15.8383C102.98 16.6 103.317 17.732 103.317 19.2062C103.317 20.6969 103.001 21.843 102.391 22.6105C101.794 23.3723 100.88 23.759 99.6727 23.759L99.668 23.7566ZM99.8367 12.0285C97.5633 12.0285 95.7586 12.6895 94.4813 13.9996C93.1957 15.3121 92.5477 17.1227 92.5477 19.3902C92.5477 21.5465 93.1805 23.2738 94.4262 24.5348C95.6824 25.8004 97.3863 26.4566 99.4945 26.4566C101.698 26.4566 103.455 25.777 104.745 24.4527C106.027 23.1238 106.678 21.3262 106.678 19.1148C106.678 16.927 106.069 15.1809 104.873 13.9352C103.666 12.6754 101.972 12.0402 99.8344 12.0402L99.8367 12.0285ZM87.6023 14.7449V12.3543H84.368V26.1004H87.6023V19.0691C87.6023 17.8738 87.8719 16.8895 88.4074 16.1453C88.9348 15.4047 89.6379 15.0438 90.4934 15.0438C90.7863 15.0438 91.1144 15.0906 91.4754 15.1844C91.827 15.2781 92.0801 15.3719 92.2254 15.4891L92.366 15.5828V12.325L92.3144 12.3016C92.0098 12.1656 91.5879 12.1 91.0488 12.1C90.2402 12.1 89.5137 12.3625 88.8902 12.8734C88.3394 13.3281 87.9445 13.9469 87.6422 14.7203H87.5836L87.6129 14.7438L87.6023 14.7449ZM78.5555 12.0262C77.0672 12.0262 75.743 12.3367 74.618 12.9637C73.4836 13.5965 72.6141 14.4871 72.0164 15.6355C71.4305 16.7723 71.1258 18.1023 71.1258 19.5848C71.1258 20.8855 71.4211 22.0738 71.993 23.1262C72.5719 24.1809 73.3875 25.0012 74.4188 25.5754C75.443 26.1414 76.6336 26.4309 77.9508 26.4309C79.4883 26.4309 80.7984 26.1262 81.8531 25.5168L81.9 25.4934V22.5262L81.7594 22.6234C81.2824 22.975 80.7516 23.2504 80.1773 23.4496C79.6055 23.6488 79.0852 23.7496 78.6305 23.7496C77.3578 23.7496 76.3406 23.3512 75.6 22.5719C74.85 21.775 74.475 20.6734 74.475 19.2906C74.475 17.8844 74.8734 16.7594 75.6422 15.9391C76.4156 15.0953 77.4328 14.6734 78.6773 14.6734C79.732 14.6734 80.7715 15.0367 81.7512 15.7398L81.8918 15.8336V12.7164L81.8531 12.693C81.484 12.482 80.9824 12.318 80.3531 12.1844C79.7367 12.0555 79.1297 11.9922 78.5508 11.9922L78.5555 12.0262ZM68.9062 12.3203H65.6766V26.0781H68.9109V12.3203H68.9062ZM67.3125 6.47266C66.7805 6.47266 66.3164 6.65313 65.9344 7.01172C65.5523 7.37266 65.3578 7.825 65.3578 8.35937C65.3578 8.88672 65.5535 9.33203 65.932 9.68359C66.307 10.0352 66.7758 10.2086 67.3148 10.2086C67.8539 10.2086 68.3227 10.0328 68.7035 9.68125C69.0879 9.32969 69.2824 8.88437 69.2824 8.35703C69.2824 7.84141 69.0949 7.39609 68.7199 7.02109C68.3449 6.66953 67.8762 6.48203 67.3137 6.48203L67.3125 6.47266ZM59.2395 11.3219V26.0875H62.5441V6.9168H57.9738L52.1813 21.1645L46.5445 6.91445H41.7938V26.1004H44.8992V11.3406H45.0047L50.9578 26.1039H53.2957L59.1551 11.3418H59.2664L59.2488 11.3348L59.2395 11.3219ZM16.9699 17.2867H32.1809V32.5105H16.9465L16.9676 17.2973L16.9699 17.2867ZM0.16875 17.2961H15.3773V32.5105H0.164062L0.16875 17.2973V17.2961ZM16.9711 0.494922H32.182V15.7059H16.9617L16.9711 0.490234V0.494922ZM0.16875 0.492578H15.3773V15.7059H0.164062L0.16875 0.490234V0.492578Z" fill="#49484D"/>
</svg>
