<svg width="133" height="35" viewBox="0 0 133 35" fill="none" xmlns="http://www.w3.org/2000/svg">
<path d="M42.875 27.1022L44.5239 23.2725C46.3057 24.6023 48.6727 25.2938 51.013 25.2938C52.7417 25.2938 53.8321 24.6289 53.8321 23.6183C53.8055 20.7992 43.4867 23.0066 43.4069 15.9324C43.3803 12.342 46.5717 9.57617 51.0928 9.57617C53.7789 9.57617 56.465 10.241 58.3798 11.757L56.8373 15.6664C55.0821 14.5494 52.9013 13.7516 50.8269 13.7516C49.4173 13.7516 48.4865 14.4164 48.4865 15.2675C48.5131 18.0333 58.9117 16.5174 59.0181 23.2725C59.0181 26.9426 55.9065 29.5223 51.4386 29.5223C48.1674 29.5223 45.1622 28.7511 42.875 27.1022Z" fill="#49484D"/>
<path d="M106.169 21.8896C105.344 23.3257 103.802 24.3097 102.02 24.3097C99.3871 24.3097 97.2595 22.1822 97.2595 19.5493C97.2595 16.9164 99.3871 14.7888 102.02 14.7888C103.802 14.7888 105.344 15.7728 106.169 17.2089L110.716 14.6824C109.014 11.6506 105.743 9.57617 102.02 9.57617C96.5148 9.57617 92.0469 14.0441 92.0469 19.5493C92.0469 25.0544 96.5148 29.5223 102.02 29.5223C105.77 29.5223 109.014 27.4745 110.716 24.4161L106.169 21.8896Z" fill="#49484D"/>
<path d="M66.9921 1.30469H61.3008V29.1495H66.9921V1.30469Z" fill="#49484D"/>
<path d="M112.906 1.30469V29.1495H118.598V20.7987L125.353 29.1495H132.64L124.05 19.2296L132.001 9.97462H125.034L118.598 17.6606V1.30469H112.906Z" fill="#49484D"/>
<path d="M83.9131 21.9428C83.0887 23.2991 81.3866 24.3097 79.4718 24.3097C76.8389 24.3097 74.7113 22.1822 74.7113 19.5493C74.7113 16.9164 76.8389 14.7888 79.4718 14.7888C81.3866 14.7888 83.0887 15.8526 83.9131 17.2355V21.9428ZM83.9131 9.9751V12.2357C82.9823 10.6666 80.6685 9.57617 78.2484 9.57617C73.2485 9.57617 69.3125 13.9909 69.3125 19.5227C69.3125 25.0544 73.2485 29.5223 78.2484 29.5223C80.6685 29.5223 82.9823 28.432 83.9131 26.8629V29.1234H89.6044V9.9751H83.9131Z" fill="#49484D"/>
<path d="M7.69683 21.9138C7.69683 23.8553 6.12774 25.4244 4.18631 25.4244C2.24488 25.4244 0.675781 23.8553 0.675781 21.9138C0.675781 19.9724 2.24488 18.4033 4.18631 18.4033H7.69683V21.9138Z" fill="#49484D"/>
<path d="M9.45312 21.9138C9.45312 19.9724 11.0222 18.4033 12.9637 18.4033C14.9051 18.4033 16.4742 19.9724 16.4742 21.9138V30.6902C16.4742 32.6316 14.9051 34.2007 12.9637 34.2007C11.0222 34.2007 9.45312 32.6316 9.45312 30.6902V21.9138Z" fill="#49484D"/>
<path d="M12.9597 7.81891C11.0183 7.81891 9.44922 6.24981 9.44922 4.30838C9.44922 2.36695 11.0183 0.797852 12.9597 0.797852C14.9012 0.797852 16.4703 2.36695 16.4703 4.30838V7.81891H12.9597Z" fill="#49484D"/>
<path d="M12.958 9.60156C14.8994 9.60156 16.4685 11.1707 16.4685 13.1121C16.4685 15.0535 14.8994 16.6226 12.958 16.6226H4.15506C2.21363 16.6226 0.644531 15.0535 0.644531 13.1121C0.644531 11.1707 2.21363 9.60156 4.15506 9.60156H12.958Z" fill="#49484D"/>
<path d="M27.0391 13.1111C27.0391 11.1697 28.6082 9.60059 30.5496 9.60059C32.491 9.60059 34.0601 11.1697 34.0601 13.1111C34.0601 15.0525 32.491 16.6216 30.5496 16.6216H27.0391V13.1111Z" fill="#49484D"/>
<path d="M25.2828 13.1113C25.2828 15.0527 23.7137 16.6218 21.7722 16.6218C19.8308 16.6218 18.2617 15.0527 18.2617 13.1113V4.30838C18.2617 2.36695 19.8308 0.797852 21.7722 0.797852C23.7137 0.797852 25.2828 2.36695 25.2828 4.30838V13.1113Z" fill="#49484D"/>
<path d="M21.7722 27.1807C23.7137 27.1807 25.2828 28.7498 25.2828 30.6912C25.2828 32.6326 23.7137 34.2017 21.7722 34.2017C19.8308 34.2017 18.2617 32.6326 18.2617 30.6912V27.1807H21.7722Z" fill="#49484D"/>
<path d="M21.7722 25.4253C19.8308 25.4253 18.2617 23.8563 18.2617 21.9148C18.2617 19.9734 19.8308 18.4043 21.7722 18.4043H30.5752C32.5166 18.4043 34.0857 19.9734 34.0857 21.9148C34.0857 23.8563 32.5166 25.4253 30.5752 25.4253H21.7722Z" fill="#49484D"/>
</svg>
